<?xml version="1.0" encoding="iso-8859-1"?>
<!-- Generator: Adobe Illustrator 17.1.0, SVG Export Plug-In . SVG Version: 6.00 Build 0)  -->
<!DOCTYPE svg PUBLIC "-//W3C//DTD SVG 1.1//EN" "http://www.w3.org/Graphics/SVG/1.1/DTD/svg11.dtd">
<svg version="1.1" id="Capa_1" xmlns="http://www.w3.org/2000/svg" xmlns:xlink="http://www.w3.org/1999/xlink" x="0px" y="0px"
	 viewBox="0 0 221.764 221.764" style="enable-background:new 0 0 221.764 221.764;" xml:space="preserve">
<path d="M221.667,179.538v14.552c0,4.143-3.357,7.5-7.5,7.5H7.5c-4.142,0-7.5-3.357-7.5-7.5v-14.552c0-4.143,3.358-7.5,7.5-7.5
	h206.667C218.309,172.038,221.667,175.396,221.667,179.538z M214.264,20.174h-45.528c-4.143,0-7.5,3.357-7.5,7.5v124
	c0,4.143,3.357,7.5,7.5,7.5h45.528c4.143,0,7.5-3.357,7.5-7.5v-124C221.764,23.531,218.407,20.174,214.264,20.174z M133.597,66.84
	H88.069c-4.142,0-7.5,3.357-7.5,7.5v77.334c0,4.143,3.358,7.5,7.5,7.5h45.528c4.143,0,7.5-3.357,7.5-7.5V74.34
	C141.097,70.198,137.74,66.84,133.597,66.84z M53.931,116.174H8.402c-4.142,0-7.5,3.357-7.5,7.5v28c0,4.143,3.358,7.5,7.5,7.5
	h45.528c4.142,0,7.5-3.357,7.5-7.5v-28C61.431,119.531,58.073,116.174,53.931,116.174z"/>
<g>
</g>
<g>
</g>
<g>
</g>
<g>
</g>
<g>
</g>
<g>
</g>
<g>
</g>
<g>
</g>
<g>
</g>
<g>
</g>
<g>
</g>
<g>
</g>
<g>
</g>
<g>
</g>
<g>
</g>
</svg>
