<?xml version="1.0" encoding="iso-8859-1"?>
<!-- Generator: Adobe Illustrator 19.0.0, SVG Export Plug-In . SVG Version: 6.00 Build 0)  -->
<svg version="1.1" id="Layer_1" xmlns="http://www.w3.org/2000/svg" xmlns:xlink="http://www.w3.org/1999/xlink" x="0px" y="0px"
	 viewBox="0 0 512.001 512.001" style="enable-background:new 0 0 512.001 512.001;" xml:space="preserve">
<g>
	<g>
		<path d="M424.766,408.289H87.895c-8.419-0.001-15.244,6.823-15.244,15.242v25.623c0,17.347,14.062,31.409,31.409,31.409h304.541
			c17.346,0,31.407-14.062,31.407-31.407v-25.623C440.009,415.114,433.185,408.289,424.766,408.289z"/>
	</g>
</g>
<g>
	<g>
		<path d="M445.686,45.802c-30.407,2.276-54.834,27.017-56.757,57.447c-1.025,16.226,4.281,31.221,13.67,42.768l-73.974,29.854
			l-45.459-28.064c21.248-10.959,35.35-33.901,33.262-59.843c-2.413-29.973-26.671-54.093-56.655-56.348
			c-36.095-2.714-66.336,25.888-66.336,61.42c0,23.197,12.894,43.433,31.886,53.937l-46.809,28.897l-70.351-28.392
			c10.419-12.035,16.278-28.118,14.811-45.552c-2.517-29.89-26.741-53.883-56.652-56.125C30.232,43.097,0,71.696,0,107.224
			c0,27.644,18.305,51.09,43.429,58.861L67.19,356.056c0.954,7.628,7.438,13.352,15.126,13.352H430.37
			c7.702,0,14.194-5.745,15.131-13.39l23.275-189.995c25.021-7.834,43.226-31.23,43.226-58.799
			C512,71.699,481.772,43.102,445.686,45.802z"/>
	</g>
</g>
<g>
</g>
<g>
</g>
<g>
</g>
<g>
</g>
<g>
</g>
<g>
</g>
<g>
</g>
<g>
</g>
<g>
</g>
<g>
</g>
<g>
</g>
<g>
</g>
<g>
</g>
<g>
</g>
<g>
</g>
</svg>
