<?xml version="1.0" encoding="utf-8"?>
<!-- Generator: Adobe Illustrator 19.1.0, SVG Export Plug-In . SVG Version: 6.00 Build 0)  -->
<svg version="1.1" id="Layer_1" xmlns="http://www.w3.org/2000/svg" xmlns:xlink="http://www.w3.org/1999/xlink" x="0px" y="0px"
	 viewBox="0 0 64 64" enable-background="new 0 0 64 64" xml:space="preserve">
<g id="Present">
	<path d="M59.9999008,11.9572001H56.299099c0.0371017-0.0167999,0.0796013-0.0293999,0.1162987-0.0465002
		C62.222599,9.2051001,58.8112984,0.0423,53.3871994,0.0428c-0.7221985,0.0001-1.4803886,0.1625-2.2569008,0.5243
		c-5.3406982,2.4882998-9.9223976,7.9802003-12.1403999,10.9678001c-0.5803986-2.3570995-3.3932991-4.0961995-6.8843002-4.0961995
		c-3.5998993,0-6.4776974,1.8495994-6.9306984,4.3190999C23.0256996,8.8291998,18.3467007,3.1187,12.8699007,0.5671
		c-0.7764006-0.3618-1.5347004-0.5243-2.2567997-0.5243c-5.4241004,0-8.8354006,9.1623001-3.0282888,11.8678999
		c0.0366883,0.0171003,0.0792885,0.0297003,0.1162887,0.0465002H4.0001006c-2.2090998,0-3.9999998,1.7909002-3.9999998,4v44
		c0,2.2091026,1.7908999,4,3.9999998,4h55.9998016c2.209198,0,4-1.7908974,4-4v-44
		C63.9999008,13.7481003,62.2090988,11.9572001,59.9999008,11.9572001z M61.9999008,15.9572001v21H33.0000992v-23h26.9998016
		C61.1026993,13.9572001,61.9999008,14.8543997,61.9999008,15.9572001z M51.9749985,2.3800001
		c0.4801025-0.2237,0.9554024-0.3371,1.4126015-0.3372002c1.9123001,0,3.4992104,2.0049,3.9286003,3.9433002
		c0.1991005,0.8989997,0.4277,3.0992002-1.7455025,4.1118002c-2.4905968,1.1603994-6.5181999,1.7737999-11.6471977,1.7737999
		c-0.9501991,0-1.8431015-0.0219002-2.6381989-0.0535002C43.5666008,8.8872004,47.5307007,4.4506001,51.9749985,2.3800001z
		 M32.1055984,9.4386997c2.4362144,0,4.5175018,1.1129007,4.916214,2.5185003h-9.8324127
		C27.5881004,10.5516005,29.6693993,9.4386997,32.1055984,9.4386997z M6.6840005,5.9861999
		c0.4294-1.9383998,2.0163999-3.9433999,3.9291005-3.9433999c0.4567995,0,0.9319992,0.1135001,1.4122,0.3372002
		c4.4319992,2.0648999,8.4008999,6.5051994,10.6863995,9.4383001c-0.7943001,0.0316-1.6858883,0.0534-2.6348877,0.0534
		c-5.1290007,0-9.1566124-0.6134005-11.6473122-1.7737999C6.2562008,9.0853004,6.4848123,6.8852,6.6840005,5.9861999z
		 M4.0001006,13.9572001h26.9999981v23H2.0001009v-21C2.0001009,14.8543997,2.8973007,13.9572001,4.0001006,13.9572001z
		 M2.0001009,59.9571991v-21h28.9999981v23H4.0001006C2.8973007,61.9571991,2.0001009,61.0600014,2.0001009,59.9571991z
		 M59.9999008,61.9571991H33.0000992v-23h28.9998016v21C61.9999008,61.0600014,61.1026993,61.9571991,59.9999008,61.9571991z"/>
</g>
</svg>
